<?xml version="1.0" encoding="UTF-8"?>
<svg width="64px" height="70px" viewBox="0 0 64 70" version="1.1" xmlns="http://www.w3.org/2000/svg" xmlns:xlink="http://www.w3.org/1999/xlink">
    <title>C_Sharp</title>
    <defs>
        <path d="M61.2260571,15.4880469 L34.7697231,0.641484375 C33.2456791,-0.213964844 30.7515077,-0.213964844 29.2274637,0.641484375 L2.77112967,15.4880469 C1.24694505,16.3432227 0,18.4428125 0,20.1534375 L0,49.8466992 C0.118575824,51.8388281 1.1655033,53.48875 2.77112967,54.5119531 L29.2274637,69.3585156 C30.7515077,70.2139648 33.2456791,70.2139648 34.7697231,69.3585156 L61.2260571,54.5119531 C62.9488527,53.3982422 63.929389,51.7217969 63.9971868,49.8466992 L63.9971868,20.1534375 C63.9352967,18.3535352 62.8264791,16.5381836 61.2260571,15.4880469 Z" id="path-1"></path>
        <linearGradient x1="34.2428888%" y1="30.5165609%" x2="82.5815063%" y2="90.286699%" id="linearGradient-3">
            <stop stop-color="#3B009B" offset="0%"></stop>
            <stop stop-color="#390086" offset="100%"></stop>
        </linearGradient>
        <linearGradient x1="27.92491%" y1="44.5468783%" x2="54.3599256%" y2="64.8174263%" id="linearGradient-4">
            <stop stop-color="#340084" offset="0%"></stop>
            <stop stop-color="#290064" offset="100%"></stop>
        </linearGradient>
        <linearGradient x1="29.0416049%" y1="29.5479971%" x2="56.0969723%" y2="55.9497093%" id="linearGradient-5">
            <stop stop-color="#A47EDE" offset="0%"></stop>
            <stop stop-color="#9866D3" offset="100%"></stop>
        </linearGradient>
    </defs>
    <g id="Transparent" stroke="none" stroke-width="1" fill="none" fill-rule="evenodd">
        <g id="Header" transform="translate(-173.000000, -21.000000)">
            <g id="C_Sharp" transform="translate(173.000000, 21.000000)">
                <g id="Clipped">
                    <mask id="mask-2" fill="white">
                        <use xlink:href="#path-1"></use>
                    </mask>
                    <g id="Path"></g>
                    <g id="Group" mask="url(#mask-2)" fill-rule="nonzero">
                        <g transform="translate(-4.219780, -2.050781)" id="Path">
                            <polygon fill="url(#linearGradient-3)" points="35.5288615 19.0704883 73.1501714 19.0704883 73.1501714 56.4621094 35.5288615 56.4621094"></polygon>
                            <polygon fill="url(#linearGradient-4)" points="73.1501714 57.8049609 24.7342418 30.5744141 0.0125186813 30.5744141 0.0125186813 75.6537305 73.1501714 75.6537305"></polygon>
                            <polygon fill="url(#linearGradient-5)" points="0.0125186813 57.4345898 73.1501714 16.2979688 73.1501714 0.0665820313 0.0125186813 0.0665820313"></polygon>
                        </g>
                    </g>
                </g>
                <path d="M11.0004207,35.4816136 C10.8751265,15.4492964 38.7675045,6.60385068 50.7958904,25.2174335 L41.566164,30.3550697 C35.9944383,21.4901447 22.1601844,24.659977 21.663648,35.4814783 C21.8127074,45.4549585 35.4100131,50.0878943 41.5667265,40.6073458 L50.7964529,45.7448467 C40.1960837,63.4469658 11.5350657,57.0780825 11.0004207,35.4816136 L11.0004207,35.4816136 Z M46.1798319,29.6647759 L47.9376072,29.6647759 L46.7365545,40.8247281 L44.9457331,40.8247281 L46.1798319,29.6647759 Z M49.9451272,29.6647759 L51.7029025,29.6647759 L50.5018498,40.8247281 L48.7110283,40.8247281 L49.9451272,29.6647759 Z M44.2111236,32.3150278 L53,32.3150278 L53,33.9480332 L44.2111236,33.9480332 L44.2111236,32.3150278 Z M43.7189466,36.2931112 L52.5078229,36.2931112 L52.5078229,37.9261165 L43.7189466,37.9261165 L43.7189466,36.2931112 Z" id="Shape" fill="#FFFFFF" fill-rule="nonzero"></path>
            </g>
        </g>
    </g>
</svg>