<?xml version="1.0" encoding="UTF-8"?>
<svg width="1500px" height="500px" viewBox="0 0 1500 500" version="1.1" xmlns="http://www.w3.org/2000/svg" xmlns:xlink="http://www.w3.org/1999/xlink">
    <title>Header</title>
    <g id="Center-Transparent" stroke="none" stroke-width="1" fill="none" fill-rule="evenodd">
        <g id="Header" transform="translate(-0.000000, 0.000000)">
            <rect id="Background" fill-opacity="0" fill="#FFFFFF" x="0" y="0" width="1500" height="500"></rect>
            <g id="Code" transform="translate(329.000000, 24.000000)">
                <g id="Class" transform="translate(0.000000, 144.000000)">
                    <rect id="Rectangle-Copy-41" fill="#73CFFF" x="0" y="299" width="15" height="9" rx="4.5"></rect>
                    <g id="Method" transform="translate(56.000000, 39.000000)">
                        <rect id="Rectangle-Copy-40" fill="#73CFFF" x="0" y="236" width="15" height="9" rx="4.5"></rect>
                        <g id="Code" transform="translate(40.000000, 44.000000)">
                            <rect id="Rectangle-Copy-39" fill="#73CFFF" x="0" y="168" width="15" height="9" rx="4.5"></rect>
                            <g id="2" transform="translate(30.000000, 48.000000)">
                                <g id="5" transform="translate(0.000000, 96.000000)">
                                    <rect id="Rectangle-Copy-36" fill="#FFE478" x="70" y="0" width="100" height="9" rx="4.5"></rect>
                                    <rect id="Rectangle-Copy-38" fill="#E1E4E8" x="190" y="0" width="200" height="9" rx="4.5"></rect>
                                    <rect id="Rectangle-Copy-37" fill="#47B0F5" x="0" y="0" width="50" height="9" rx="4.5"></rect>
                                </g>
                                <g id="4" transform="translate(0.000000, 72.000000)">
                                    <rect id="Rectangle-Copy-35" fill="#E1E4E8" x="195" y="0" width="180" height="9" rx="4.5"></rect>
                                    <rect id="Rectangle-Copy-32" fill="#EF6372" x="80" y="0" width="60" height="9" rx="4.5"></rect>
                                    <rect id="Rectangle-Copy-34" fill="#47B0F5" x="160" y="0" width="15" height="9" rx="4.5"></rect>
                                    <rect id="Rectangle-Copy-33" fill="#47B0F5" x="0" y="0" width="60" height="9" rx="4.5"></rect>
                                </g>
                                <g id="3" transform="translate(0.000000, 48.000000)">
                                    <rect id="Rectangle-Copy-30" fill="#E1E4E8" x="0" y="0" width="180" height="9" rx="4.5"></rect>
                                    <rect id="Rectangle-Copy-31" fill="#47B0F5" x="200" y="0" width="60" height="9" rx="4.5"></rect>
                                </g>
                                <g transform="translate(0.000000, 24.000000)">
                                    <rect id="Rectangle-Copy-29" fill="#45D466" x="310" y="0" width="150" height="9" rx="4.5"></rect>
                                    <rect id="Rectangle-Copy-17" fill="#E1E4E8" x="0" y="0" width="200" height="9" rx="4.5"></rect>
                                    <rect id="Rectangle-Copy-14" fill="#47B0F5" x="220" y="0" width="70" height="9" rx="4.5"></rect>
                                </g>
                                <g id="1">
                                    <rect id="Rectangle-Copy-21" fill="#D271E3" x="0" y="0" width="40" height="9" rx="4.5"></rect>
                                    <rect id="Rectangle-Copy-28" fill="#D271E3" x="180" y="0" width="40" height="9" rx="4.5"></rect>
                                    <rect id="Rectangle-Copy-16" fill="#FFE478" x="240" y="0" width="150" height="9" rx="4.5"></rect>
                                    <rect id="Rectangle-Copy-13" fill="#EF6372" x="60" y="0" width="60" height="9" rx="4.5"></rect>
                                    <rect id="Rectangle-Copy-24" fill="#26B8C4" x="140" y="0" width="20" height="9" rx="4.5"></rect>
                                </g>
                            </g>
                            <g id="1">
                                <rect id="8" fill="#45D466" x="405" y="0" width="200" height="9" rx="4.5"></rect>
                                <rect id="7" fill="#EF6372" x="0" y="0" width="100" height="9" rx="4.5"></rect>
                                <rect id="6" fill="#EF6372" x="160" y="0" width="100" height="9" rx="4.5"></rect>
                                <rect id="5" fill="#47B0F5" x="280" y="0" width="70" height="9" rx="4.5"></rect>
                                <rect id="4" fill="#FFE478" x="625" y="0" width="80" height="9" rx="4.5"></rect>
                                <rect id="3" fill="#FFE478" x="370" y="0" width="15" height="9" rx="4.5"></rect>
                                <rect id="2" fill="#26B8C4" x="120" y="0" width="20" height="9" rx="4.5"></rect>
                                <rect fill="#E1E4E8" x="725" y="0" width="20" height="9" rx="4.5"></rect>
                            </g>
                            <rect id="Rectangle-Copy-6" fill="#73CFFF" x="0" y="24" width="15" height="9" rx="4.5"></rect>
                        </g>
                        <g id="Declaration">
                            <rect id="Rectangle-Copy-20" fill="#D271E3" x="0" y="0" width="70" height="9" rx="4.5"></rect>
                            <rect id="Rectangle-Copy-42" fill="#E1E4E8" x="190" y="0" width="150" height="9" rx="4.5"></rect>
                            <rect id="Rectangle-Copy-22" fill="#47B0F5" x="90" y="0" width="80" height="9" rx="4.5"></rect>
                        </g>
                        <rect id="Rectangle-Copy-10" fill="#73CFFF" x="0" y="24" width="15" height="9" rx="4.5"></rect>
                    </g>
                    <rect id="Rectangle-Copy-7" fill="#73CFFF" x="0" y="24" width="15" height="9" rx="4.5"></rect>
                    <g id="Declaration">
                        <rect id="Rectangle" fill="#D271E3" x="0" y="0" width="46" height="9" rx="4.5"></rect>
                        <rect id="Rectangle-Copy-18" fill="#D271E3" x="236" y="0" width="20" height="9" rx="4.5"></rect>
                        <rect id="Rectangle-Copy" fill="#47B0F5" x="66" y="0" width="80" height="9" rx="4.5"></rect>
                        <rect id="Rectangle-Copy-2" fill="#E1E4E8" x="166" y="0" width="50" height="9" rx="4.5"></rect>
                        <rect id="Rectangle-Copy-19" fill="#E1E4E8" x="276" y="0" width="70" height="9" rx="4.5"></rect>
                    </g>
                </g>
                <g id="Comments" transform="translate(0.000000, 63.000000)" fill="#E1E4E8">
                    <rect id="3" x="0" y="48" width="370" height="9" rx="4.5"></rect>
                    <rect id="2" x="0" y="24" width="400" height="9" rx="4.5"></rect>
                    <rect id="1" x="0" y="0" width="250" height="9" rx="4.5"></rect>
                </g>
                <g id="Imports">
                    <g id="2">
                        <rect id="Rectangle-Copy-3" fill="#D271E3" x="0" y="0" width="60" height="9" rx="4.5"></rect>
                        <rect id="Rectangle-Copy-4" fill="#D271E3" x="180" y="0" width="46" height="9" rx="4.5"></rect>
                        <rect id="Rectangle-Copy-26" fill="#45D466" x="246" y="0" width="200" height="9" rx="4.5"></rect>
                        <rect id="Rectangle-Copy-25" fill="#EF6372" x="80" y="0" width="80" height="9" rx="4.5"></rect>
                    </g>
                    <g id="1" transform="translate(0.000000, 24.000000)">
                        <rect id="Rectangle-Copy-43" fill="#D271E3" x="0" y="0" width="60" height="9" rx="4.5"></rect>
                        <rect id="Rectangle-Copy-45" fill="#D271E3" x="200" y="0" width="46" height="9" rx="4.5"></rect>
                        <rect id="Rectangle-Copy-46" fill="#45D466" x="266" y="0" width="250" height="9" rx="4.5"></rect>
                        <rect id="Rectangle-Copy-44" fill="#EF6372" x="80" y="0" width="100" height="9" rx="4.5"></rect>
                    </g>
                </g>
            </g>
        </g>
    </g>
</svg>