<?xml version="1.0" encoding="UTF-8"?>
<svg width="32px" height="35px" viewBox="0 0 32 35" version="1.1" xmlns="http://www.w3.org/2000/svg" xmlns:xlink="http://www.w3.org/1999/xlink">
    <title>C_Sharp</title>
    <defs>
        <path d="M30.6130286,7.74402344 L17.3848615,0.320742187 C16.6228396,-0.106982422 15.3757538,-0.106982422 14.6137319,0.320742187 L1.38556484,7.74402344 C0.623472527,8.17161133 0,9.22140625 0,10.0767187 L0,24.9233496 C0.0592879121,25.9194141 0.582751648,26.744375 1.38556484,27.2559766 L14.6137319,34.6792578 C15.3757538,35.1069824 16.6228396,35.1069824 17.3848615,34.6792578 L30.6130286,27.2559766 C31.4744264,26.6991211 31.9646945,25.8608984 31.9985934,24.9233496 L31.9985934,10.0767187 C31.9676484,9.17676758 31.4132396,8.2690918 30.6130286,7.74402344 Z" id="path-1"></path>
        <linearGradient x1="34.2428888%" y1="30.5165609%" x2="82.5815063%" y2="90.286699%" id="linearGradient-3">
            <stop stop-color="#3B009B" offset="0%"></stop>
            <stop stop-color="#390086" offset="100%"></stop>
        </linearGradient>
        <linearGradient x1="27.92491%" y1="44.5468783%" x2="54.3599256%" y2="64.8174263%" id="linearGradient-4">
            <stop stop-color="#340084" offset="0%"></stop>
            <stop stop-color="#290064" offset="100%"></stop>
        </linearGradient>
        <linearGradient x1="29.0416049%" y1="29.5479971%" x2="56.0969723%" y2="55.9497093%" id="linearGradient-5">
            <stop stop-color="#A47EDE" offset="0%"></stop>
            <stop stop-color="#9866D3" offset="100%"></stop>
        </linearGradient>
    </defs>
    <g id="Page-1" stroke="none" stroke-width="1" fill="none" fill-rule="evenodd">
        <g id="C_Sharp">
            <g id="Clipped">
                <mask id="mask-2" fill="white">
                    <use xlink:href="#path-1"></use>
                </mask>
                <g id="Path"></g>
                <g id="Group" mask="url(#mask-2)" fill-rule="nonzero">
                    <g transform="translate(-2.109890, -1.025391)" id="Path">
                        <polygon fill="url(#linearGradient-3)" points="17.7644308 9.53524414 36.5750857 9.53524414 36.5750857 28.2310547 17.7644308 28.2310547"></polygon>
                        <polygon fill="url(#linearGradient-4)" points="36.5750857 28.9024805 12.3671209 15.287207 0.00625934066 15.287207 0.00625934066 37.8268652 36.5750857 37.8268652"></polygon>
                        <polygon fill="url(#linearGradient-5)" points="0.00625934066 28.7172949 36.5750857 8.14898438 36.5750857 0.0332910156 0.00625934066 0.0332910156"></polygon>
                    </g>
                </g>
            </g>
            <path d="M5.50021036,17.7408068 C5.43756325,7.72464822 19.3837523,3.30192534 25.3979452,12.6087168 L20.783082,15.1775348 C17.9972191,10.7450724 11.0800922,12.3299885 10.831824,17.7407391 C10.9063537,22.7274792 17.7050066,25.0439471 20.7833633,20.3036729 L25.3982265,22.8724233 C20.0980418,31.7234829 5.76753283,28.5390413 5.50021036,17.7408068 L5.50021036,17.7408068 Z M23.089916,14.832388 L23.9688036,14.832388 L23.3682773,20.4123641 L22.4728665,20.4123641 L23.089916,14.832388 Z M24.9725636,14.832388 L25.8514512,14.832388 L25.2509249,20.4123641 L24.3555142,20.4123641 L24.9725636,14.832388 Z M22.1055618,16.1575139 L26.5,16.1575139 L26.5,16.9740166 L22.1055618,16.9740166 L22.1055618,16.1575139 Z M21.8594733,18.1465556 L26.2539115,18.1465556 L26.2539115,18.9630583 L21.8594733,18.9630583 L21.8594733,18.1465556 Z" id="Shape" fill="#FFFFFF" fill-rule="nonzero"></path>
        </g>
    </g>
</svg>