<?xml version="1.0" encoding="UTF-8"?>
<svg width="41px" height="33px" viewBox="0 0 41 33" version="1.1" xmlns="http://www.w3.org/2000/svg" xmlns:xlink="http://www.w3.org/1999/xlink">
    <title>docker</title>
    <g id="Page-1" stroke="none" stroke-width="1" fill="none" fill-rule="evenodd">
        <g id="docker" transform="translate(0.985458, 0.906713)" fill="#0091E2" fill-rule="nonzero">
            <path d="M39.6077113,12.0869798 C39.4964084,11.9836722 38.4946821,11.1365506 36.3428256,11.1365506 C35.7863109,11.1365506 35.2112458,11.1985351 34.6547312,11.3018426 C34.2466205,8.14063253 31.8907086,6.61168124 31.7979562,6.52903522 L31.2228911,6.15712815 L30.8518814,6.75631177 C30.3881192,7.56211042 30.0356599,8.47121659 29.8316046,9.40098426 C29.4420443,11.1985351 29.6832007,12.8927784 30.4994221,14.3390837 C29.5162463,14.9589288 27.9209044,15.1035593 27.5869956,15.1242208 L1.2453038,15.1242208 C0.558935771,15.1242208 0.00242115559,15.744066 0.00242115559,16.5085416 C-0.0346798188,19.0705681 0.354880412,21.6325946 1.15255136,24.0499905 C2.06152523,26.694663 3.4157108,28.6575059 5.15945659,29.8558731 C7.12580824,31.1988708 10.3350425,31.9633465 13.9523875,31.9633465 C15.5848304,31.9633465 17.2172733,31.7980545 18.8311657,31.4674704 C21.0757746,31.0129173 23.2276311,30.1451342 25.2125332,28.8847824 C26.8449761,27.8310457 28.3104646,26.488048 29.5533473,24.9177737 C31.6495523,22.2937627 32.8924349,19.3598291 33.8014088,16.7564796 L34.1724186,16.7564796 C36.4541285,16.7564796 37.8639655,15.744066 38.643086,14.8762828 C39.1624996,14.3390837 39.5520598,13.6779156 39.8303172,12.9341014 L39.9972715,12.3969023 L39.6077113,12.0869798 Z" id="Shape"></path>
            <path d="M3.69396811,14.2770992 L7.21856067,14.2770992 C7.38551506,14.2770992 7.53391896,14.1324686 7.53391896,13.9258536 L7.53391896,10.413398 C7.53391896,10.2274444 7.40406554,10.0621524 7.21856067,10.0621524 L3.69396811,10.0621524 C3.52701372,10.0621524 3.37860982,10.2067829 3.37860982,10.413398 L3.37860982,13.9258536 C3.39716031,14.1324686 3.52701372,14.2770992 3.69396811,14.2770992 Z M8.55419575,14.2770992 L12.0787883,14.2770992 C12.2457427,14.2770992 12.3941466,14.1324686 12.3941466,13.9258536 L12.3941466,10.413398 C12.3941466,10.2274444 12.2642932,10.0621524 12.0787883,10.0621524 L8.55419575,10.0621524 C8.38724137,10.0621524 8.23883747,10.2067829 8.23883747,10.413398 L8.23883747,13.9258536 C8.25738796,14.1324686 8.38724137,14.2770992 8.55419575,14.2770992 M13.5071758,14.2770992 L17.0317684,14.2770992 C17.1987228,14.2770992 17.3471267,14.1324686 17.3471267,13.9258536 L17.3471267,10.413398 C17.3471267,10.2274444 17.2172733,10.0621524 17.0317684,10.0621524 L13.5071758,10.0621524 C13.3402214,10.0621524 13.1918175,10.2067829 13.1918175,10.413398 L13.1918175,13.9258536 C13.1918175,14.1324686 13.321671,14.2770992 13.5071758,14.2770992 Z M18.385954,14.2770992 L21.9105465,14.2770992 C22.0775009,14.2770992 22.2259048,14.1324686 22.2259048,13.9258536 L22.2259048,10.413398 C22.2259048,10.2274444 22.0960514,10.0621524 21.9105465,10.0621524 L18.385954,10.0621524 C18.2189996,10.0621524 18.0705957,10.2067829 18.0705957,10.413398 L18.0705957,13.9258536 C18.0705957,14.1324686 18.2189996,14.2770992 18.385954,14.2770992 Z M8.55419575,9.25635374 L12.0787883,9.25635374 C12.2457427,9.25635374 12.3941466,9.0910617 12.3941466,8.90510817 L12.3941466,5.39265251 C12.3941466,5.20669898 12.2642932,5.04140695 12.0787883,5.04140695 L8.55419575,5.04140695 C8.38724137,5.04140695 8.23883747,5.18603747 8.23883747,5.39265251 L8.23883747,8.90510817 C8.25738796,9.0910617 8.38724137,9.25635374 8.55419575,9.25635374 M13.5071758,9.25635374 L17.0317684,9.25635374 C17.1987228,9.25635374 17.3471267,9.0910617 17.3471267,8.90510817 L17.3471267,5.39265251 C17.3471267,5.20669898 17.2172733,5.04140695 17.0317684,5.04140695 L13.5071758,5.04140695 C13.3402214,5.04140695 13.1918175,5.18603747 13.1918175,5.39265251 L13.1918175,8.90510817 C13.1918175,9.0910617 13.321671,9.25635374 13.5071758,9.25635374 M18.385954,9.25635374 L21.9105465,9.25635374 C22.0775009,9.25635374 22.2259048,9.0910617 22.2259048,8.90510817 L22.2259048,5.39265251 C22.2259048,5.20669898 22.0775009,5.04140695 21.9105465,5.04140695 L18.385954,5.04140695 C18.2189996,5.04140695 18.0705957,5.18603747 18.0705957,5.39265251 L18.0705957,8.90510817 C18.0705957,9.0910617 18.2189996,9.25635374 18.385954,9.25635374 M18.385954,4.21494679 L21.9105465,4.21494679 C22.0775009,4.21494679 22.2259048,4.07031626 22.2259048,3.86370122 L22.2259048,0.351245566 C22.2259048,0.165292031 22.0775009,-1.41006931e-15 21.9105465,-1.41006931e-15 L18.385954,-1.41006931e-15 C18.2189996,-1.41006931e-15 18.0705957,0.144630527 18.0705957,0.351245566 L18.0705957,3.86370122 C18.0705957,4.04965476 18.2189996,4.21494679 18.385954,4.21494679 M23.3018331,14.2770992 L26.8264256,14.2770992 C26.99338,14.2770992 27.1417839,14.1324686 27.1417839,13.9258536 L27.1417839,10.413398 C27.1417839,10.2274444 27.0119305,10.0621524 26.8264256,10.0621524 L23.3018331,10.0621524 C23.1348787,10.0621524 22.9864748,10.2067829 22.9864748,10.413398 L22.9864748,13.9258536 C23.0050253,14.1324686 23.1348787,14.2770992 23.3018331,14.2770992" id="Shape"></path>
        </g>
    </g>
</svg>