<?xml version="1.0" encoding="UTF-8"?>
<svg width="33px" height="35px" viewBox="0 0 33 35" version="1.1" xmlns="http://www.w3.org/2000/svg" xmlns:xlink="http://www.w3.org/1999/xlink">
    <title>flutter</title>
    <defs>
        <path d="M31.226947,15.6838182 L20.825405,24.8229097 L31.226947,33.9620013 L19.3410648,33.9620013 L8.93580257,24.8229097 L19.3410648,15.6838182 L31.226947,15.6838182 Z M19.3410648,0.0228722348 L0.0223209057,16.990803 L5.96712211,22.2122075 L31.226947,0.0228722348 L19.3410648,0.0228722348 Z" id="path-1"></path>
        <path d="M31.226947,15.6838182 L20.825405,24.8229097 L31.226947,33.9620013 L19.3410648,33.9620013 L8.93580257,24.8229097 L19.3410648,15.6838182 L31.226947,15.6838182 Z M19.3410648,0.0228722348 L0.0223209057,16.990803 L5.96712211,22.2122075 L31.226947,0.0228722348 L19.3410648,0.0228722348 Z" id="path-3"></path>
        <path d="M31.226947,15.6838182 L20.825405,24.8229097 L31.226947,33.9620013 L19.3410648,33.9620013 L8.93580257,24.8229097 L19.3410648,15.6838182 L31.226947,15.6838182 Z M19.3410648,0.0228722348 L0.0223209057,16.990803 L5.96712211,22.2122075 L31.226947,0.0228722348 L19.3410648,0.0228722348 Z" id="path-5"></path>
        <path d="M31.226947,15.6838182 L20.825405,24.8229097 L31.226947,33.9620013 L19.3410648,33.9620013 L8.93580257,24.8229097 L19.3410648,15.6838182 L31.226947,15.6838182 Z M19.3410648,0.0228722348 L0.0223209057,16.990803 L5.96712211,22.2122075 L31.226947,0.0228722348 L19.3410648,0.0228722348 Z" id="path-7"></path>
        <linearGradient x1="19.6772152%" y1="74.3041636%" x2="69.8945148%" y2="48.1836457%" id="linearGradient-9">
            <stop stop-color="#1A237E" stop-opacity="0.4" offset="0%"></stop>
            <stop stop-color="#1A237E" stop-opacity="0" offset="100%"></stop>
        </linearGradient>
        <path d="M31.226947,15.6838182 L20.825405,24.8229097 L31.226947,33.9620013 L19.3410648,33.9620013 L8.93580257,24.8229097 L19.3410648,15.6838182 L31.226947,15.6838182 Z M19.3410648,0.0228722348 L0.0223209057,16.990803 L5.96712211,22.2122075 L31.226947,0.0228722348 L19.3410648,0.0228722348 Z" id="path-10"></path>
        <radialGradient cx="2.80934072%" cy="6.81570713%" fx="2.80934072%" fy="6.81570713%" r="151.492877%" gradientTransform="translate(0.028093,0.068157),scale(1.000000,0.919429),translate(-0.028093,-0.068157)" id="radialGradient-12">
            <stop stop-color="#FFFFFF" stop-opacity="0.1" offset="0%"></stop>
            <stop stop-color="#FFFFFF" stop-opacity="0" offset="100%"></stop>
        </radialGradient>
    </defs>
    <g id="Page-1" stroke="none" stroke-width="1" fill="none" fill-rule="evenodd">
        <g id="flutter">
            <g id="Clipped" transform="translate(0.581423, 0.507447)">
                <mask id="mask-2" fill="white">
                    <use xlink:href="#path-1"></use>
                </mask>
                <g id="Shape"></g>
                <polygon id="Path" fill="#39CEFD" fill-rule="nonzero" mask="url(#mask-2)" points="8.93952272 24.8229097 14.8806038 30.0443142 31.226947 15.6838182 19.3410648 15.6838182"></polygon>
            </g>
            <g id="Clipped" transform="translate(0.581423, 0.507447)">
                <mask id="mask-4" fill="white">
                    <use xlink:href="#path-3"></use>
                </mask>
                <g id="Shape"></g>
                <polygon id="Path" fill="#39CEFD" fill-rule="nonzero" mask="url(#mask-4)" points="19.3410648 0.0228722348 31.226947 0.0228722348 5.96712211 22.2122075 0.0223209057 16.990803"></polygon>
            </g>
            <g id="Clipped" transform="translate(0.581423, 0.507447)">
                <mask id="mask-6" fill="white">
                    <use xlink:href="#path-5"></use>
                </mask>
                <g id="Shape"></g>
                <polygon id="Path" fill="#03569B" fill-rule="nonzero" mask="url(#mask-6)" points="14.8806038 30.0443142 19.3410648 33.9587338 31.226947 33.9587338 20.825405 24.8229097"></polygon>
            </g>
            <g id="Clipped" transform="translate(0.581423, 0.507447)">
                <mask id="mask-8" fill="white">
                    <use xlink:href="#path-7"></use>
                </mask>
                <g id="Shape"></g>
                <polygon id="Path" fill="url(#linearGradient-9)" fill-rule="nonzero" mask="url(#mask-8)" points="23.6973615 27.3617278 20.825405 24.8229097 14.8806038 30.0443142"></polygon>
            </g>
            <g id="Clipped" transform="translate(0.581423, 0.507447)">
                <mask id="mask-11" fill="white">
                    <use xlink:href="#path-10"></use>
                </mask>
                <g id="Shape"></g>
                <polygon id="Path" fill="#16B9FD" fill-rule="nonzero" mask="url(#mask-11)" points="8.93885309 24.8211126 14.8838031 19.5995448 20.8291251 24.8211126 14.8838031 30.0426805"></polygon>
            </g>
            <path d="M31.8083701,16.1912652 L21.4068281,25.3303567 L31.8083701,34.4694483 L19.9224878,34.4694483 L9.51722566,25.3303567 L19.9224878,16.1912652 L31.8083701,16.1912652 Z M19.9224878,0.530319205 L0.603744,17.49825 L6.54854521,22.7196545 L31.8083701,0.530319205 L19.9224878,0.530319205 Z" id="Shape" fill="url(#radialGradient-12)" fill-rule="nonzero"></path>
        </g>
    </g>
</svg>