<?xml version="1.0" encoding="UTF-8"?>
<svg width="32px" height="32px" viewBox="0 0 32 32" version="1.1" xmlns="http://www.w3.org/2000/svg" xmlns:xlink="http://www.w3.org/1999/xlink">
    <title>javascript</title>
    <g id="Page-1" stroke="none" stroke-width="1" fill="none" fill-rule="evenodd">
        <g id="javascript" fill-rule="nonzero">
            <polygon id="Path" fill="#F7DF1E" points="0 0 32 0 32 32 0 32"></polygon>
            <path d="M8.44456928,26.714793 L10.8901027,25.2342276 C11.3619821,26.0710418 11.7911676,26.7791057 12.8206885,26.7791057 C13.8075156,26.7791057 14.4298221,26.3929798 14.4298221,24.8909352 L14.4298221,14.6760828 L17.4329971,14.6760828 L17.4329971,24.9333941 C17.4329971,28.0450041 15.6096453,29.4613817 12.9493942,29.4613817 C10.5469291,29.4613817 9.15238831,28.2167127 8.44444444,26.7145433 M19.0642266,26.392855 L21.5095104,24.9766022 C22.1532886,26.0282083 22.9899382,26.8007098 24.4699915,26.8007098 C25.7144797,26.8007098 26.5079361,26.1783128 26.5079361,25.3198946 C26.5079361,24.2898926 25.6927583,23.9249962 24.3198141,23.3243282 L23.5691764,23.0021404 C21.4024012,22.0796592 19.9651666,20.9207821 19.9651666,18.4744025 C19.9651666,16.2210858 21.6812844,14.5042493 24.3628824,14.5042493 C26.2721213,14.5042493 27.6450655,15.1696046 28.6317677,16.9077954 L26.2933433,18.4100898 C25.7783956,17.4873588 25.2208789,17.1225873 24.3627576,17.1225873 C23.4831645,17.1225873 22.9253981,17.6805467 22.9253981,18.4100898 C22.9253981,19.3113415 23.4831645,19.6763628 24.7702217,20.2343222 L25.5209842,20.5561354 C28.0738765,21.6506998 29.5111111,22.7664937 29.5111111,25.2770611 C29.5111111,27.981191 27.3874044,29.4617564 24.534282,29.4617564 C21.7455749,29.4617564 19.94357,28.1312955 19.0641017,26.3929798" id="Shape" fill="#000000"></path>
        </g>
    </g>
</svg>