<?xml version="1.0" encoding="UTF-8"?>
<svg width="64px" height="64px" viewBox="0 0 64 64" version="1.1" xmlns="http://www.w3.org/2000/svg" xmlns:xlink="http://www.w3.org/1999/xlink">
    <title>javascript</title>
    <g id="Transparent" stroke="none" stroke-width="1" fill="none" fill-rule="evenodd">
        <g id="Header" transform="translate(-15.000000, -24.000000)" fill-rule="nonzero">
            <g id="javascript" transform="translate(15.000000, 24.000000)">
                <polygon id="Path" fill="#F7DF1E" points="0 0 64 0 64 64 0 64"></polygon>
                <path d="M16.8891386,53.429586 L21.7802055,50.4684552 C22.7239642,52.1420835 23.5823352,53.5582114 25.641377,53.5582114 C27.6150311,53.5582114 28.8596441,52.7859597 28.8596441,49.7818704 L28.8596441,29.3521656 L34.8659942,29.3521656 L34.8659942,49.8667882 C34.8659942,56.0900082 31.2192906,58.9227635 25.8987884,58.9227635 C21.0938582,58.9227635 18.3047766,56.4334255 16.8888889,53.4290865 M38.1284531,52.7857099 L43.0190207,49.9532044 C44.3065773,52.0564165 45.9798764,53.6014195 48.9399831,53.6014195 C51.4289594,53.6014195 53.0158722,52.3566257 53.0158722,50.6397892 C53.0158722,48.5797852 51.3855165,47.8499923 48.6396281,46.6486563 L47.1383527,46.0042807 C42.8048025,44.1593184 39.9303332,41.8415641 39.9303332,36.9488049 C39.9303332,32.4421716 43.3625689,29.0084986 48.7257648,29.0084986 C52.5442425,29.0084986 55.2901309,30.3392092 57.2635354,33.8155908 L52.5866867,36.8201795 C51.5567913,34.9747177 50.4417578,34.2451746 48.7255152,34.2451746 C46.966329,34.2451746 45.8507962,35.3610933 45.8507962,36.8201795 C45.8507962,38.622683 46.966329,39.3527257 49.5404433,40.4686444 L51.0419684,41.1122708 C56.1477529,43.3013996 59.0222222,45.5329874 59.0222222,50.5541222 C59.0222222,55.9623819 54.7748087,58.9235127 49.068564,58.9235127 C43.4911498,58.9235127 39.88714,56.262591 38.1282035,52.7859597" id="Shape" fill="#000000"></path>
            </g>
        </g>
    </g>
</svg>