<?xml version="1.0" encoding="UTF-8"?>
<svg width="33px" height="36px" viewBox="0 0 33 36" version="1.1" xmlns="http://www.w3.org/2000/svg" xmlns:xlink="http://www.w3.org/1999/xlink">
    <title>node</title>
    <defs>
        <linearGradient x1="69.7184048%" y1="17.487%" x2="25.9569462%" y2="89.755%" id="linearGradient-1">
            <stop stop-color="#41873F" offset="0%"></stop>
            <stop stop-color="#418B3D" offset="32.88%"></stop>
            <stop stop-color="#419637" offset="63.52%"></stop>
            <stop stop-color="#3FA92D" offset="93.19%"></stop>
            <stop stop-color="#3FAE2A" offset="100%"></stop>
        </linearGradient>
        <path d="M16.8543035,0.239314122 C16.3187074,-0.0535042229 15.6620618,-0.0535042229 15.1264658,0.239314122 L0.862570356,8.14597116 C0.320239212,8.43877902 0.0153611632,8.99201696 0.0153611632,9.5776327 L0.0153611632,25.4247323 C0.0153611632,26.010348 0.354244841,26.563586 0.862570356,26.8563938 L15.1264658,34.763614 C15.6620618,35.0564323 16.3187074,35.0564323 16.8543035,34.763614 L31.118492,26.8563938 C31.66053,26.563586 31.9657012,26.010348 31.9657012,25.4247323 L31.9657012,9.57791424 C31.9657012,8.99229851 31.6265244,8.43906057 31.118492,8.1462527 L16.8543035,0.239314122 Z" id="path-2"></path>
        <linearGradient x1="42.7113022%" y1="55.169%" x2="168.437273%" y2="-18.306%" id="linearGradient-4">
            <stop stop-color="#41873F" offset="13.76%"></stop>
            <stop stop-color="#54A044" offset="40.32%"></stop>
            <stop stop-color="#66B848" offset="71.36%"></stop>
            <stop stop-color="#6CC04A" offset="90.81%"></stop>
        </linearGradient>
        <path d="M16.8543035,0.239314122 C16.3187074,-0.0535042229 15.6620618,-0.0535042229 15.1264658,0.239314122 L0.862570356,8.14597116 C0.320239212,8.43877902 0.0153611632,8.99201696 0.0153611632,9.5776327 L0.0153611632,25.4247323 C0.0153611632,26.010348 0.354244841,26.563586 0.862570356,26.8563938 L15.1264658,34.763614 C15.6620618,35.0564323 16.3187074,35.0564323 16.8543035,34.763614 L31.118492,26.8563938 C31.66053,26.563586 31.9657012,26.010348 31.9657012,25.4247323 L31.9657012,9.57791424 C31.9657012,8.99229851 31.6265244,8.43906057 31.118492,8.1462527 L16.8543035,0.239314122 Z" id="path-5"></path>
        <linearGradient x1="-4.389%" y1="49.997%" x2="101.499%" y2="49.997%" id="linearGradient-7">
            <stop stop-color="#6CC04A" offset="9.192%"></stop>
            <stop stop-color="#66B848" offset="28.64%"></stop>
            <stop stop-color="#54A044" offset="59.68%"></stop>
            <stop stop-color="#41873F" offset="86.24%"></stop>
        </linearGradient>
        <linearGradient x1="-9713.77%" y1="36.21%" x2="27.93%" y2="36.21%" id="linearGradient-8">
            <stop stop-color="#6CC04A" offset="9.192%"></stop>
            <stop stop-color="#66B848" offset="28.64%"></stop>
            <stop stop-color="#54A044" offset="59.68%"></stop>
            <stop stop-color="#41873F" offset="86.24%"></stop>
        </linearGradient>
        <linearGradient x1="-103.861%" y1="50.275%" x2="100.797%" y2="50.275%" id="linearGradient-9">
            <stop stop-color="#6CC04A" offset="9.192%"></stop>
            <stop stop-color="#66B848" offset="28.64%"></stop>
            <stop stop-color="#54A044" offset="59.68%"></stop>
            <stop stop-color="#41873F" offset="86.24%"></stop>
        </linearGradient>
        <linearGradient x1="130.613%" y1="-190.806649%" x2="4.393%" y2="189.838479%" id="linearGradient-10">
            <stop stop-color="#41873F" offset="0%"></stop>
            <stop stop-color="#418B3D" offset="32.88%"></stop>
            <stop stop-color="#419637" offset="63.52%"></stop>
            <stop stop-color="#3FA92D" offset="93.19%"></stop>
            <stop stop-color="#3FAE2A" offset="100%"></stop>
        </linearGradient>
    </defs>
    <g id="Page-1" stroke="none" stroke-width="1" fill="none" fill-rule="evenodd">
        <g id="node" transform="translate(0.628906, 0.125977)">
            <g id="a-link" fill="url(#linearGradient-1)" fill-rule="nonzero">
                <path d="M16.8543035,0.239314122 C16.3187074,-0.0535042229 15.6620618,-0.0535042229 15.1264658,0.239314122 L0.862570356,8.14597116 C0.320239212,8.43877902 0.0153611632,8.99201696 0.0153611632,9.5776327 L0.0153611632,25.4247323 C0.0153611632,26.010348 0.354244841,26.563586 0.862570356,26.8563938 L15.1264658,34.763614 C15.6620618,35.0564323 16.3187074,35.0564323 16.8543035,34.763614 L31.118492,26.8563938 C31.66053,26.563586 31.9657012,26.010348 31.9657012,25.4247323 L31.9657012,9.57791424 C31.9657012,8.99229851 31.6265244,8.43906057 31.118492,8.1462527 L16.8543035,0.239314122 Z" id="a"></path>
            </g>
            <g id="Clipped">
                <mask id="mask-3" fill="white">
                    <use xlink:href="#path-2"></use>
                </mask>
                <g id="a"></g>
                <g id="Group" mask="url(#mask-3)">
                    <g transform="translate(-0.120075, 0.000000)">
                        <path d="M15.2125352,0.239314122 L0.914927298,8.14597116 C0.372303002,8.43906057 0,8.99258006 0,9.57819579 L0,25.4252954 C0,25.8157997 0.169441839,26.1736447 0.440314259,26.4664526 L16.5000586,0.04392118 C16.0934568,-0.0211159519 15.619137,0.011261841 15.2125352,0.239032576 L15.2125352,0.239314122 Z M16.6017824,34.9266291 C16.7372186,34.8939698 16.8729479,34.8289326 17.0083841,34.7638955 L31.3062852,26.8566754 C31.8486163,26.5638675 32.1872068,26.0106296 32.1872068,25.4250138 L32.1872068,9.57791424 C32.1872068,9.15503211 31.9837594,8.73186844 31.6788813,8.43906057 L16.6020755,34.9266291 L16.6017824,34.9266291 Z" id="Shape" fill="none"></path>
                        <path d="M31.2722795,8.1462527 L16.940666,0.239314122 C16.7998495,0.171018886 16.6522374,0.116499949 16.5000586,0.0765805189 L0.440314259,26.4991119 C0.57334552,26.6551019 0.734017672,26.7873005 0.914927298,26.8896163 L15.2465408,34.7968364 C15.6531426,35.0246071 16.1274625,35.0896443 16.5677767,34.9592884 L31.6451689,8.47200145 C31.5434451,8.34192719 31.4077158,8.24394917 31.2722795,8.14653425 L31.2722795,8.1462527 Z" id="Path" fill="url(#linearGradient-4)" fill-rule="nonzero"></path>
                    </g>
                </g>
            </g>
            <g id="Clipped">
                <mask id="mask-6" fill="white">
                    <use xlink:href="#path-5"></use>
                </mask>
                <g id="a"></g>
                <g id="Group" mask="url(#mask-6)">
                    <g transform="translate(-0.120075, -2.757800)">
                        <path d="M32.1872068,28.1828135 L32.1872068,12.3357139 C32.1872068,11.7500981 31.8146107,11.1968602 31.2725727,10.9040523 L16.9400797,2.99711375 C16.7744291,2.89885744 16.5904103,2.83258242 16.3983349,2.80200236 L32.08519,28.54094 C32.1529081,28.4432435 32.1869137,28.3131693 32.1869137,28.183095 L32.1872068,28.1828135 Z M0.914634146,10.9040523 C0.372889306,11.1968602 0,11.7503797 0,12.3359954 L0,28.183095 C0,28.7687107 0.406601782,29.3219487 0.914634146,29.6147566 L15.2465408,37.5219767 C15.5854245,37.7170881 15.9580206,37.7824068 16.3646224,37.7170881 L1.01635788,10.871393 L0.914927298,10.9040523 L0.914634146,10.9040523 Z" id="Shape" fill="none"></path>
                        <path d="M31.3062852,29.614475 C31.712887,29.3867043 32.017765,28.9961999 32.1534944,28.5733178 L16.4320474,2.80172081 C16.0254456,2.73668368 15.5848382,2.76906147 15.2125352,2.99683221 L0.982352251,10.8716745 L16.3303236,37.7494659 C16.5535311,37.7143674 16.7703321,37.6486593 16.9740854,37.5543545 L31.305992,29.6147566 L31.3062852,29.614475 Z" id="Path" fill="url(#linearGradient-7)" fill-rule="evenodd"></path>
                        <polygon id="Path" fill="url(#linearGradient-8)" fill-rule="evenodd" points="32.6278143 29.3543265 32.5260905 29.1915929 32.5260905 29.4193636 32.6275211 29.3543265"></polygon>
                        <path d="M31.3062852,29.614475 L17.0083841,37.5216951 C16.8065387,37.6205477 16.5889856,37.6864837 16.3646224,37.7168065 L16.635788,38.2050073 L32.4920849,29.3869858 L32.4920849,29.1915929 L32.0854831,28.5406585 C32.017765,28.9961999 31.712887,29.3867043 31.3062852,29.614475 L31.3062852,29.614475 Z" id="Path" fill="url(#linearGradient-9)" fill-rule="evenodd"></path>
                        <path d="M31.3062852,29.614475 L17.0083841,37.5216951 C16.8065387,37.6205477 16.5889856,37.6864837 16.3646224,37.7168065 L16.635788,38.2050073 L32.4920849,29.3869858 L32.4920849,29.1915929 L32.0854831,28.5406585 C32.017765,28.9961999 31.712887,29.3867043 31.3062852,29.614475 L31.3062852,29.614475 Z" id="Path" fill="url(#linearGradient-10)" fill-rule="evenodd"></path>
                    </g>
                </g>
            </g>
        </g>
    </g>
</svg>