<?xml version="1.0" encoding="UTF-8"?>
<svg width="35px" height="32px" viewBox="0 0 35 32" version="1.1" xmlns="http://www.w3.org/2000/svg" xmlns:xlink="http://www.w3.org/1999/xlink">
    <title>react</title>
    <g id="Page-1" stroke="none" stroke-width="1" fill="none" fill-rule="evenodd">
        <g id="react" fill="#61DAFB" fill-rule="nonzero">
            <path d="M34.9502033,16 C34.9502033,13.6201373 32.054878,11.3647597 27.6158537,9.96613272 C28.6402439,5.30892449 28.1849593,1.60366133 26.1788618,0.417391304 C25.7164634,0.139130435 25.175813,0.00732265446 24.5853659,0.00732265446 L24.5853659,1.6402746 C24.9126016,1.6402746 25.175813,1.70617849 25.3963415,1.83066362 C26.3638211,2.40183066 26.7835366,4.57665904 26.4563008,7.37391304 C26.3780488,8.06224256 26.25,8.78718535 26.0934959,9.52677346 C24.699187,9.17528604 23.1768293,8.90434783 21.5762195,8.72860412 C20.6158537,7.37391304 19.6199187,6.14370709 18.6168699,5.06727689 C20.9359756,2.84851259 23.1128049,1.63295195 24.5924797,1.63295195 L24.5924797,0 C24.5924797,0 24.5924797,0 24.5924797,0 C22.6361789,0 20.0752033,1.43524027 17.4857724,3.92494279 C14.8963415,1.44988558 12.3353659,0.0292906178 10.379065,0.0292906178 L10.379065,1.66224256 C11.851626,1.66224256 14.0355691,2.87048055 16.3546748,5.07459954 C15.3587398,6.15102975 14.3628049,7.37391304 13.4166667,8.72860412 C11.8089431,8.90434783 10.2865854,9.17528604 8.89227642,9.53409611 C8.72865854,8.80183066 8.60772358,8.09153318 8.52235772,7.41052632 C8.18800813,4.61327231 8.60060976,2.43844394 9.56097561,1.85995423 C9.77439024,1.72814645 10.0518293,1.66956522 10.379065,1.66956522 L10.379065,0.0366132723 C10.379065,0.0366132723 10.379065,0.0366132723 10.379065,0.0366132723 C9.78150407,0.0366132723 9.24085366,0.168421053 8.77134146,0.446681922 C6.77235772,1.63295195 6.32418699,5.33089245 7.35569106,9.97345538 C2.93089431,11.379405 0.049796748,13.62746 0.049796748,16 C0.049796748,18.3798627 2.94512195,20.6352403 7.38414634,22.0338673 C6.3597561,26.6910755 6.81504065,30.3963387 8.82113821,31.5826087 C9.28353659,31.8608696 9.82418699,31.9926773 10.421748,31.9926773 C12.3780488,31.9926773 14.9390244,30.5574371 17.5284553,28.0677346 C20.1178862,30.5427918 22.6788618,31.9633867 24.6351626,31.9633867 C25.2327236,31.9633867 25.773374,31.8315789 26.2428862,31.5533181 C28.2418699,30.3670481 28.6900407,26.6691076 27.6585366,22.0265446 C32.0691057,20.6279176 34.9502033,18.37254 34.9502033,16 Z M25.6880081,11.1157895 C25.4247967,12.0604119 25.097561,13.0343249 24.7276423,14.008238 C24.4359756,13.4224256 24.1300813,12.8366133 23.7957317,12.2508009 C23.4684959,11.6649886 23.1199187,11.0938215 22.7713415,10.5372998 C23.7815041,10.6910755 24.7560976,10.8814645 25.6880081,11.1157895 Z M22.429878,18.9144165 C21.875,19.9029748 21.3058943,20.8402746 20.7154472,21.7116705 C19.6554878,21.806865 18.5813008,21.8581236 17.5,21.8581236 C16.425813,21.8581236 15.351626,21.806865 14.2987805,21.7189931 C13.7083333,20.8475973 13.1321138,19.9176201 12.5772358,18.9363844 C12.0365854,17.9771167 11.5457317,17.0032037 11.097561,16.021968 C11.5386179,15.0407323 12.0365854,14.0594966 12.570122,13.1002288 C13.125,12.1116705 13.6941057,11.1743707 14.2845528,10.3029748 C15.3445122,10.2077803 16.4186992,10.1565217 17.5,10.1565217 C18.574187,10.1565217 19.648374,10.2077803 20.7012195,10.2956522 C21.2916667,11.1670481 21.8678862,12.0970252 22.4227642,13.0782609 C22.9634146,14.0375286 23.4542683,15.0114416 23.902439,15.9926773 C23.4542683,16.973913 22.9634146,17.9551487 22.429878,18.9144165 Z M24.7276423,17.9624714 C25.1117886,18.9437071 25.4390244,19.9249428 25.7093496,20.8768879 C24.777439,21.1112128 23.7957317,21.3089245 22.7784553,21.4627002 C23.1270325,20.8988558 23.4756098,20.3203661 23.8028455,19.7272311 C24.1300813,19.1414188 24.4359756,18.5482838 24.7276423,17.9624714 Z M17.5142276,25.7757437 C16.8526423,25.0727689 16.1910569,24.2892449 15.5365854,23.4324943 C16.1768293,23.4617849 16.8313008,23.4837529 17.4928862,23.4837529 C18.1615854,23.4837529 18.8231707,23.4691076 19.4705285,23.4324943 C18.8302846,24.2892449 18.1686992,25.0727689 17.5142276,25.7757437 Z M12.2215447,21.4627002 C11.2113821,21.3089245 10.2367886,21.1185355 9.30487805,20.8842105 C9.56808943,19.9395881 9.8953252,18.9656751 10.2652439,17.991762 C10.5569106,18.5775744 10.8628049,19.1633867 11.1971545,19.7491991 C11.5315041,20.3350114 11.8729675,20.9061785 12.2215447,21.4627002 Z M17.4786585,6.22425629 C18.1402439,6.92723112 18.8018293,7.71075515 19.4563008,8.56750572 C18.8160569,8.5382151 18.1615854,8.51624714 17.5,8.51624714 C16.8313008,8.51624714 16.1697154,8.53089245 15.5223577,8.56750572 C16.1626016,7.71075515 16.824187,6.92723112 17.4786585,6.22425629 Z M12.2144309,10.5372998 C11.8658537,11.1011442 11.5172764,11.6796339 11.1900407,12.2727689 C10.8628049,12.8585812 10.5569106,13.4443936 10.2652439,14.0302059 C9.88109756,13.0489703 9.55386179,12.0677346 9.28353659,11.1157895 C10.2154472,10.8887872 11.1971545,10.6910755 12.2144309,10.5372998 Z M5.77642276,19.7052632 C3.25813008,18.5995423 1.62906504,17.1496568 1.62906504,16 C1.62906504,14.8503432 3.25813008,13.393135 5.77642276,12.2947368 C6.38821138,12.0237986 7.05691057,11.782151 7.74695122,11.5551487 C8.15243902,12.990389 8.68597561,14.4842105 9.34756098,16.0146453 C8.69308943,17.5377574 8.16666667,19.0242563 7.76829268,20.4521739 C7.06402439,20.2251716 6.3953252,19.9762014 5.77642276,19.7052632 Z M9.60365854,30.1693364 C8.63617886,29.5981693 8.21646341,27.423341 8.54369919,24.626087 C8.62195122,23.9377574 8.75,23.2128146 8.90650407,22.4732265 C10.300813,22.824714 11.8231707,23.0956522 13.4237805,23.2713959 C14.3841463,24.626087 15.3800813,25.8562929 16.3831301,26.9327231 C14.0640244,29.1514874 11.8871951,30.3670481 10.4075203,30.3670481 C10.0873984,30.3597254 9.81707317,30.2938215 9.60365854,30.1693364 Z M26.4776423,24.5894737 C26.8119919,27.3867277 26.3993902,29.5615561 25.4390244,30.1400458 C25.2256098,30.2718535 24.9481707,30.3304348 24.620935,30.3304348 C23.148374,30.3304348 20.9644309,29.1221968 18.6453252,26.9180778 C19.6412602,25.8416476 20.6371951,24.6187643 21.5833333,23.2640732 C23.1910569,23.0883295 24.7134146,22.8173913 26.1077236,22.4585812 C26.2713415,23.1981693 26.3993902,23.9084668 26.4776423,24.5894737 Z M29.2164634,19.7052632 C28.6046748,19.9762014 27.9359756,20.217849 27.245935,20.4448513 C26.8404472,19.009611 26.3069106,17.5157895 25.6453252,15.9853547 C26.2997967,14.4622426 26.8262195,12.9757437 27.2245935,11.5478261 C27.9288618,11.7748284 28.597561,12.0237986 29.2235772,12.2947368 C31.7418699,13.4004577 33.370935,14.8503432 33.370935,16 C33.3638211,17.1496568 31.7347561,18.606865 29.2164634,19.7052632 Z" id="Shape"></path>
            <ellipse id="Oval" cx="17.4928862" cy="16" rx="3.25101626" ry="3.34645309"></ellipse>
        </g>
    </g>
</svg>