<?xml version="1.0" encoding="UTF-8"?>
<svg width="32px" height="32px" viewBox="0 0 32 32" version="1.1" xmlns="http://www.w3.org/2000/svg" xmlns:xlink="http://www.w3.org/1999/xlink">
    <title>react</title>
    <g id="Page-1" stroke="none" stroke-width="1" fill="none" fill-rule="evenodd">
        <g id="react" fill="#61DAFB" fill-rule="nonzero">
            <path d="M31.9544715,16 C31.9544715,13.6201373 29.3073171,11.3647597 25.2487805,9.96613272 C26.1853659,5.30892449 25.7691057,1.60366133 23.9349593,0.417391304 C23.5121951,0.139130435 23.0178862,0.00732265446 22.4780488,0.00732265446 L22.4780488,1.6402746 C22.7772358,1.6402746 23.0178862,1.70617849 23.2195122,1.83066362 C24.104065,2.40183066 24.4878049,4.57665904 24.1886179,7.37391304 C24.1170732,8.06224256 24,8.78718535 23.8569106,9.52677346 C22.5821138,9.17528604 21.1902439,8.90434783 19.7268293,8.72860412 C18.8487805,7.37391304 17.9382114,6.14370709 17.0211382,5.06727689 C19.1414634,2.84851259 21.1317073,1.63295195 22.4845528,1.63295195 L22.4845528,0 C22.4845528,0 22.4845528,0 22.4845528,0 C20.695935,0 18.3544715,1.43524027 15.9869919,3.92494279 C13.6195122,1.44988558 11.2780488,0.0292906178 9.48943089,0.0292906178 L9.48943089,1.66224256 C10.8357724,1.66224256 12.8325203,2.87048055 14.9528455,5.07459954 C14.0422764,6.15102975 13.1317073,7.37391304 12.2666667,8.72860412 C10.796748,8.90434783 9.40487805,9.17528604 8.1300813,9.53409611 C7.9804878,8.80183066 7.8699187,8.09153318 7.79186992,7.41052632 C7.48617886,4.61327231 7.86341463,2.43844394 8.74146341,1.85995423 C8.93658537,1.72814645 9.1902439,1.66956522 9.48943089,1.66956522 L9.48943089,0.0366132723 C9.48943089,0.0366132723 9.48943089,0.0366132723 9.48943089,0.0366132723 C8.94308943,0.0366132723 8.44878049,0.168421053 8.0195122,0.446681922 C6.19186992,1.63295195 5.78211382,5.33089245 6.72520325,9.97345538 C2.6796748,11.379405 0.0455284553,13.62746 0.0455284553,16 C0.0455284553,18.3798627 2.69268293,20.6352403 6.75121951,22.0338673 C5.81463415,26.6910755 6.23089431,30.3963387 8.06504065,31.5826087 C8.48780488,31.8608696 8.98211382,31.9926773 9.52845528,31.9926773 C11.3170732,31.9926773 13.6585366,30.5574371 16.0260163,28.0677346 C18.3934959,30.5427918 20.7349593,31.9633867 22.5235772,31.9633867 C23.0699187,31.9633867 23.5642276,31.8315789 23.9934959,31.5533181 C25.8211382,30.3670481 26.2308943,26.6691076 25.2878049,22.0265446 C29.3203252,20.6279176 31.9544715,18.37254 31.9544715,16 Z M23.4861789,11.1157895 C23.2455285,12.0604119 22.9463415,13.0343249 22.6081301,14.008238 C22.3414634,13.4224256 22.0617886,12.8366133 21.7560976,12.2508009 C21.4569106,11.6649886 21.1382114,11.0938215 20.8195122,10.5372998 C21.7430894,10.6910755 22.6341463,10.8814645 23.4861789,11.1157895 Z M20.5073171,18.9144165 C20,19.9029748 19.4796748,20.8402746 18.9398374,21.7116705 C17.9707317,21.806865 16.9886179,21.8581236 16,21.8581236 C15.0178862,21.8581236 14.0357724,21.806865 13.0731707,21.7189931 C12.5333333,20.8475973 12.0065041,19.9176201 11.499187,18.9363844 C11.004878,17.9771167 10.5560976,17.0032037 10.1463415,16.021968 C10.5495935,15.0407323 11.004878,14.0594966 11.4926829,13.1002288 C12,12.1116705 12.5203252,11.1743707 13.0601626,10.3029748 C14.0292683,10.2077803 15.0113821,10.1565217 16,10.1565217 C16.9821138,10.1565217 17.9642276,10.2077803 18.9268293,10.2956522 C19.4666667,11.1670481 19.9934959,12.0970252 20.500813,13.0782609 C20.995122,14.0375286 21.4439024,15.0114416 21.8536585,15.9926773 C21.4439024,16.973913 20.995122,17.9551487 20.5073171,18.9144165 Z M22.6081301,17.9624714 C22.9593496,18.9437071 23.2585366,19.9249428 23.5056911,20.8768879 C22.6536585,21.1112128 21.7560976,21.3089245 20.8260163,21.4627002 C21.1447154,20.8988558 21.4634146,20.3203661 21.7626016,19.7272311 C22.0617886,19.1414188 22.3414634,18.5482838 22.6081301,17.9624714 Z M16.0130081,25.7757437 C15.4081301,25.0727689 14.803252,24.2892449 14.204878,23.4324943 C14.7902439,23.4617849 15.3886179,23.4837529 15.9934959,23.4837529 C16.604878,23.4837529 17.2097561,23.4691076 17.801626,23.4324943 C17.2162602,24.2892449 16.6113821,25.0727689 16.0130081,25.7757437 Z M11.1739837,21.4627002 C10.2504065,21.3089245 9.35934959,21.1185355 8.50731707,20.8842105 C8.74796748,19.9395881 9.04715447,18.9656751 9.38536585,17.991762 C9.65203252,18.5775744 9.93170732,19.1633867 10.2373984,19.7491991 C10.5430894,20.3350114 10.8552846,20.9061785 11.1739837,21.4627002 Z M15.9804878,6.22425629 C16.5853659,6.92723112 17.1902439,7.71075515 17.7886179,8.56750572 C17.203252,8.5382151 16.604878,8.51624714 16,8.51624714 C15.3886179,8.51624714 14.7837398,8.53089245 14.1918699,8.56750572 C14.7772358,7.71075515 15.3821138,6.92723112 15.9804878,6.22425629 Z M11.1674797,10.5372998 C10.8487805,11.1011442 10.5300813,11.6796339 10.2308943,12.2727689 C9.93170732,12.8585812 9.65203252,13.4443936 9.38536585,14.0302059 C9.03414634,13.0489703 8.73495935,12.0677346 8.48780488,11.1157895 C9.3398374,10.8887872 10.2373984,10.6910755 11.1674797,10.5372998 Z M5.28130081,19.7052632 C2.97886179,18.5995423 1.48943089,17.1496568 1.48943089,16 C1.48943089,14.8503432 2.97886179,13.393135 5.28130081,12.2947368 C5.84065041,12.0237986 6.45203252,11.782151 7.08292683,11.5551487 C7.45365854,12.990389 7.94146341,14.4842105 8.54634146,16.0146453 C7.94796748,17.5377574 7.46666667,19.0242563 7.10243902,20.4521739 C6.45853659,20.2251716 5.84715447,19.9762014 5.28130081,19.7052632 Z M8.7804878,30.1693364 C7.89593496,29.5981693 7.51219512,27.423341 7.81138211,24.626087 C7.88292683,23.9377574 8,23.2128146 8.14308943,22.4732265 C9.41788618,22.824714 10.8097561,23.0956522 12.2731707,23.2713959 C13.1512195,24.626087 14.0617886,25.8562929 14.9788618,26.9327231 C12.8585366,29.1514874 10.8682927,30.3670481 9.51544715,30.3670481 C9.22276423,30.3597254 8.97560976,30.2938215 8.7804878,30.1693364 Z M24.2081301,24.5894737 C24.5138211,27.3867277 24.1365854,29.5615561 23.2585366,30.1400458 C23.0634146,30.2718535 22.8097561,30.3304348 22.5105691,30.3304348 C21.1642276,30.3304348 19.1674797,29.1221968 17.0471545,26.9180778 C17.9577236,25.8416476 18.8682927,24.6187643 19.7333333,23.2640732 C21.203252,23.0883295 22.595122,22.8173913 23.8699187,22.4585812 C24.0195122,23.1981693 24.1365854,23.9084668 24.2081301,24.5894737 Z M26.7121951,19.7052632 C26.1528455,19.9762014 25.5414634,20.217849 24.9105691,20.4448513 C24.5398374,19.009611 24.0520325,17.5157895 23.4471545,15.9853547 C24.0455285,14.4622426 24.5268293,12.9757437 24.8910569,11.5478261 C25.5349593,11.7748284 26.1463415,12.0237986 26.7186992,12.2947368 C29.0211382,13.4004577 30.5105691,14.8503432 30.5105691,16 C30.504065,17.1496568 29.0146341,18.606865 26.7121951,19.7052632 Z" id="Shape"></path>
            <ellipse id="Oval" cx="15.9934959" cy="16" rx="2.97235772" ry="3.34645309"></ellipse>
        </g>
    </g>
</svg>