<?xml version="1.0" encoding="UTF-8"?>
<svg width="32px" height="32px" viewBox="0 0 32 32" version="1.1" xmlns="http://www.w3.org/2000/svg" xmlns:xlink="http://www.w3.org/1999/xlink">
    <title>typescript</title>
    <g id="Page-1" stroke="none" stroke-width="1" fill="none" fill-rule="evenodd">
        <g id="typescript" fill-rule="nonzero">
            <polygon id="Shape-path" fill="#007ACC" points="0 16 0 32 32.001 32 32.001 -0.001 0 -0.001"></polygon>
            <path d="M18.276,16.06 L18.286,17.37 L14.121,17.37 L14.121,29.205 L11.175,29.205 L11.175,17.37 L7.01,17.37 L7.01,16.085 L7.045,14.765 C7.06,14.745 9.595,14.735 12.668,14.74 L18.2605,14.755 L18.276,16.06 Z" id="Shape-path" fill="#FFFFFF"></path>
            <path d="M25.7885,14.725 C26.601,14.928 27.221,15.289 27.79,15.878 C28.085,16.193 28.5215,16.767 28.557,16.904 C28.567,16.944 27.1755,17.879 26.332,18.4025 C26.302,18.4225 26.1795,18.291 26.042,18.0875 C25.6305,17.4875 25.199,17.229 24.5385,17.1835 C23.5685,17.1175 22.9385,17.6255 22.9485,18.4735 C22.9485,18.7225 22.9835,18.8695 23.0855,19.0735 C23.299,19.5155 23.6955,19.7795 24.9395,20.3185 C27.2305,21.3035 28.2105,21.9535 28.8195,22.8785 C29.4995,23.9095 29.6525,25.5555 29.1905,26.7795 C28.6825,28.1105 27.423,29.0145 25.6505,29.3145 C25.102,29.411 23.8015,29.396 23.2125,29.2895 C21.9275,29.061 20.7085,28.426 19.9565,27.593 C19.6615,27.268 19.088,26.4195 19.1235,26.358 C19.1385,26.338 19.271,26.2565 19.4185,26.17 L20.607,25.485 L21.527,24.9515 L21.72,25.2365 C21.989,25.648 22.5785,26.2115 22.934,26.3995 C23.955,26.938 25.357,26.8615 26.0475,26.242 C26.3425,25.973 26.464,25.6935 26.464,25.282 C26.464,24.911 26.419,24.7485 26.2255,24.4695 C25.9765,24.1145 25.4685,23.8145 24.0255,23.1895 C22.3745,22.4785 21.6635,22.0365 21.0135,21.3355 C20.6375,20.929 20.282,20.279 20.1345,19.7355 C20.0125,19.2835 19.982,18.1505 20.0785,17.6935 C20.4185,16.0935 21.6225,14.986 23.36,14.656 C23.924,14.5495 25.235,14.59 25.788,14.727 L25.7885,14.725 Z" id="Shape-path" fill="#FFFFFF"></path>
        </g>
    </g>
</svg>