<?xml version="1.0" encoding="UTF-8"?>
<svg width="32px" height="32px" viewBox="0 0 32 32" version="1.1" xmlns="http://www.w3.org/2000/svg" xmlns:xlink="http://www.w3.org/1999/xlink">
    <title>VSCode</title>
    <defs>
        <path d="M22.69175,31.7815 C23.19575,31.977875 23.7705,31.96525 24.27925,31.7205 L30.8675,28.550375 C31.55975,28.21725 32.0000003,27.5165 32.0000003,26.747875 L32.0000003,5.2522625 C32.0000003,4.4836125 31.55975,3.782975 30.8675,3.44985 L24.27925,0.27960125 C23.611625,-0.0416415 22.83025,0.037043 22.244375,0.4630225 C22.160625,0.523875 22.080875,0.5918175 22.006125,0.6666925 L9.393625,12.173275 L3.8999,8.0030875 C3.3884875,7.6148875 2.6731625,7.6466875 2.1981875,8.07875 L0.43617,9.6815625 C-0.14481625,10.2100625 -0.1454825,11.124075 0.43473125,11.653425 L5.199075,16 L0.43473125,20.346625 C-0.1454825,20.876 -0.14481625,21.79 0.43617,22.3185 L2.1981875,23.92125 C2.6731625,24.353375 3.3884875,24.385125 3.8999,23.997 L9.393625,19.82675 L22.006125,31.333375 C22.205625,31.533 22.439875,31.683375 22.69175,31.7815 Z M24.004875,8.7356625 L14.434875,16 L24.004875,23.264375 L24.004875,8.7356625 Z" id="path-1"></path>
        <linearGradient x1="50.0000484%" y1="-3.91645412e-07%" x2="50.0000484%" y2="99.999921%" id="linearGradient-3">
            <stop stop-color="#FFFFFF" offset="0%"></stop>
            <stop stop-color="#FFFFFF" stop-opacity="0" offset="100%"></stop>
        </linearGradient>
    </defs>
    <g id="Page-1" stroke="none" stroke-width="1" fill="none" fill-rule="evenodd">
        <g id="VSCode">
            <mask id="mask-2" fill="white">
                <use xlink:href="#path-1"></use>
            </mask>
            <g id="Shape"></g>
            <g id="Group" mask="url(#mask-2)">
                <g transform="translate(-0.125000, 0.000000)">
                    <path d="M30.9925,3.4547875 L24.399125,0.2801725 C23.636,-0.08728775 22.723875,0.067715125 22.124875,0.666665 L0.54046375,20.346625 C-0.0401025,20.876 -0.039435,21.79 0.54190375,22.3185 L2.3049875,23.92125 C2.7802625,24.353375 3.496025,24.385125 4.0077375,23.997 L30.000375,4.2783625 C30.872375,3.6168375 32.124875,4.2387875 32.124875,5.3333375 L32.124875,5.2567875 C32.124875,4.488475 31.68475,3.7880875 30.9925,3.4547875 Z" id="Path" fill="#0065A9" fill-rule="nonzero"></path>
                    <path d="M30.9925,28.54525 L24.399125,31.719875 C23.636,32.08725 22.723875,31.93225 22.124875,31.333375 L0.54046375,11.6534 C-0.0401025,11.1240625 -0.039435,10.210025 0.54190375,9.6815375 L2.3049875,8.078725 C2.7802625,7.6466625 3.496025,7.61485 4.0077375,8.0030625 L30.000375,27.721625 C30.872375,28.383125 32.124875,27.76125 32.124875,26.666625 L32.124875,26.74325 C32.124875,27.5115 31.68475,28.211875 30.9925,28.54525 Z" id="Path" fill="#007ACC" fill-rule="nonzero"></path>
                    <path d="M24.3995,31.720375 C23.636125,32.0875 22.724,31.932375 22.125,31.333375 C22.863,32.071375 24.125,31.548625 24.125,30.504875 L24.125,1.495075 C24.125,0.45132125 22.863,-0.071396875 22.125,0.66665125 C22.724,0.06764575 23.636125,-0.087575875 24.3995,0.27956 L30.99175,3.4498125 C31.6845,3.7829375 32.125,4.483575 32.125,5.252225 L32.125,26.747875 C32.125,27.5165 31.6845,28.217125 30.99175,28.55025 L24.3995,31.720375 Z" id="Path" fill="#1F9CF0" fill-rule="nonzero"></path>
                    <g id="Group" opacity="0.25" style="mix-blend-mode: overlay;" stroke-width="1" fill="none" fill-rule="evenodd">
                        <path d="M22.79725,31.7815 C23.30125,31.97775 23.876,31.96525 24.384625,31.7205 L30.972875,28.55025 C31.66525,28.217125 32.1055,27.5165 32.1055,26.747875 L32.1055,5.2522375 C32.1055,4.4835875 31.66525,3.78295 30.973,3.449825 L24.384625,0.27958125 C23.717125,-0.041662375 22.93575,0.037022125 22.34975,0.46300125 C22.266125,0.52385375 22.186375,0.59179625 22.1115,0.66667125 L9.4990875,12.17325 L4.0053625,8.0030625 C3.4939625,7.6148625 2.778625,7.646675 2.30365,8.078725 L0.54163875,9.6815375 C-0.0393475,10.2100375 -0.04001375,11.1240625 0.5402,11.6534125 L5.30455,16 L0.5402,20.346625 C-0.04001375,20.876 -0.0393475,21.79 0.54163875,22.3185 L2.30365,23.92125 C2.778625,24.353375 3.4939625,24.385125 4.0053625,23.997 L9.4990875,19.82675 L22.1115,31.333375 C22.311,31.533 22.545375,31.683375 22.79725,31.7815 Z M24.110375,8.7356375 L14.540375,16 L24.110375,23.264375 L24.110375,8.7356375 Z" id="Shape" fill="url(#linearGradient-3)"></path>
                    </g>
                </g>
            </g>
        </g>
    </g>
</svg>